<svg version="1.1" id="Layer_1" xmlns="http://www.w3.org/2000/svg" xmlns:xlink="http://www.w3.org/1999/xlink" x="0px" y="0px"
	 width="100%" viewBox="0 0 512 512" enable-background="new 0 0 512 512" xml:space="preserve">
<path fill="#FFFFFF" opacity="1.000000" stroke="none" 
	d="
M513.000000,267.000000 
	C513.000000,298.354218 513.000000,329.708466 512.694214,361.436676 
	C512.203308,361.207672 512.018188,360.604645 511.902618,359.578308 
	C510.592529,352.770966 509.212860,346.386902 507.893188,339.621460 
	C504.913055,331.827637 501.872925,324.415253 498.793213,316.654907 
	C494.204926,309.521942 489.656219,302.736938 485.055603,295.601410 
	C477.706787,287.819763 470.409882,280.388641 462.964417,272.644043 
	C461.396576,271.243500 460.065765,270.008942 458.542755,269.094604 
	C451.604980,264.929565 444.613159,260.854584 437.415039,256.444763 
	C422.742035,248.874527 407.311768,244.279816 391.344818,243.303604 
	C378.247437,242.502823 364.755066,243.055984 351.871124,245.395538 
	C340.391968,247.479996 329.506866,252.836136 318.021606,256.817810 
	C309.418030,262.243988 301.152496,267.600769 292.580627,273.097046 
	C282.375977,281.122070 273.788788,290.208221 266.630981,301.045563 
	C263.174835,306.781860 260.035156,312.365784 256.586060,318.124634 
	C253.143448,327.521179 250.010239,336.742798 246.548569,346.178986 
	C245.202026,353.596375 244.183929,360.799194 243.097015,368.466003 
	C243.407257,378.287048 243.786316,387.644165 244.097473,397.416870 
	C246.314209,406.568756 248.598846,415.305054 250.943756,424.420471 
	C253.964798,431.213806 256.925598,437.628021 260.036011,444.364014 
	C262.751312,448.469269 265.316986,452.252808 267.940613,456.388794 
	C273.295868,462.843140 278.593201,468.945007 284.030701,475.355713 
	C290.744507,480.792755 297.318207,485.920990 304.058014,491.360474 
	C308.780670,494.131378 313.337250,496.591003 318.066772,499.368225 
	C327.237610,502.817230 336.172363,506.149628 345.257080,509.004974 
	C350.717194,510.721130 356.411133,511.693420 362.000000,513.000000 
	C330.645782,513.000000 299.291534,513.000000 267.379395,512.673096 
	C261.919250,507.882965 257.017059,503.419739 251.974213,498.646545 
	C247.928864,493.878387 244.024124,489.420166 239.974289,484.643799 
	C238.349335,482.187256 236.622696,480.175781 235.443878,477.882690 
	C233.350449,473.810486 230.219955,472.890198 225.796494,472.902802 
	C172.637375,473.054413 119.477386,473.076385 66.318626,472.871490 
	C61.571148,472.853210 56.677765,471.463226 52.126232,469.908112 
	C46.620316,468.026947 44.434265,462.707794 41.905560,457.571777 
	C41.651939,451.395020 41.135223,445.654114 41.041046,439.906219 
	C40.850464,428.274261 40.888996,416.638550 40.905434,404.540466 
	C40.929642,383.386169 40.881477,362.695831 40.904961,341.541260 
	C40.928925,321.386078 40.881241,301.695099 40.904305,281.539886 
	C40.927937,264.384644 40.880821,247.693649 40.903542,230.538376 
	C40.926640,219.049591 40.879902,208.025070 40.902149,196.552490 
	C40.971134,193.843094 40.971134,191.581772 40.971134,189.274597 
	C185.343552,189.274597 329.049866,189.274597 472.812469,189.274597 
	C472.943909,191.029327 473.055237,192.515198 473.098511,194.465317 
	C473.019470,206.012283 472.961945,217.095383 473.051910,228.177292 
	C473.064270,229.699478 473.319824,231.817596 474.307770,232.621872 
	C477.277863,235.039734 480.665741,236.944366 484.036499,239.358124 
	C489.750275,244.458755 495.318176,249.250473 501.028931,254.348587 
	C505.114502,258.769989 509.057251,262.885010 513.000000,267.000000 
M196.970703,250.073700 
	C196.970703,243.825607 196.970703,237.577530 196.970703,231.329315 
	C183.350723,231.329315 170.330246,231.329315 157.168045,231.329315 
	C157.168045,238.102966 157.168045,244.552505 157.030151,251.929642 
	C157.030151,258.178406 157.030151,264.427185 157.030151,270.675293 
	C170.647934,270.675293 183.670380,270.675293 196.831955,270.675293 
	C196.831955,263.901825 196.831955,257.451935 196.970703,250.073700 
M77.015762,429.235687 
	C77.471741,429.802979 77.924271,430.862610 78.384201,430.865845 
	C91.146042,430.955322 103.908638,430.937592 116.649857,430.937592 
	C116.649857,417.346283 116.649857,404.294556 116.649857,391.404755 
	C103.240662,391.404755 90.188354,391.404755 76.999039,391.404755 
	C76.999039,403.963196 76.999039,416.121216 77.015762,429.235687 
M237.024872,232.768768 
	C237.024872,245.370773 237.024872,257.972778 237.024872,270.690704 
	C250.574326,270.690704 263.619202,270.690704 276.639221,270.690704 
	C276.639221,257.330688 276.639221,244.285492 276.639221,231.002777 
	C264.803375,231.002777 253.328995,230.971512 241.855179,231.039261 
	C240.285004,231.048538 238.717728,231.551102 237.024872,232.768768 
M196.998337,402.518738 
	C196.998337,398.760162 196.998337,395.001556 196.998337,391.395538 
	C183.254913,391.395538 170.205124,391.395538 157.255844,391.395538 
	C157.255844,404.719971 157.255844,417.651520 157.255844,430.702515 
	C170.565994,430.702515 183.615356,430.702515 196.998413,430.702515 
	C196.998413,421.440399 196.998413,412.476196 196.998337,402.518738 
M117.000801,255.496552 
	C117.000801,247.412918 117.000801,239.329269 117.000801,231.400909 
	C103.246902,231.400909 90.204086,231.400909 77.263138,231.400909 
	C77.263138,244.724823 77.263138,257.649200 77.263138,270.694702 
	C90.572189,270.694702 103.614044,270.694702 117.000801,270.694702 
	C117.000801,265.760803 117.000801,261.127899 117.000801,255.496552 
M90.508400,351.003265 
	C99.260094,351.003265 108.011795,351.003265 116.606262,351.003265 
	C116.606262,337.255371 116.606262,324.208557 116.606262,311.266479 
	C103.281685,311.266479 90.354500,311.266479 77.304924,311.266479 
	C77.304924,324.576477 77.304924,337.621307 77.304924,351.003265 
	C81.576149,351.003265 85.543999,351.003265 90.508400,351.003265 
M169.511078,311.002930 
	C165.422089,311.002930 161.333099,311.002930 157.390762,311.002930 
	C157.390762,324.751953 157.390762,337.798615 157.390762,350.744446 
	C170.713547,350.744446 183.641861,350.744446 196.696320,350.744446 
	C196.696320,337.439301 196.696320,324.394562 196.696320,311.002930 
	C187.765305,311.002930 179.136902,311.002930 169.511078,311.002930 
z"/>
<path fill="#1CD9B8" opacity="1.000000" stroke="none" 
	d="
M513.000000,154.000000 
	C513.000000,160.687637 513.000000,167.375290 512.531372,174.531464 
	C341.708466,175.000000 171.354233,175.000000 1.000000,175.000000 
	C1.000000,168.312363 1.000000,161.624710 1.468657,154.468536 
	C172.291550,154.000000 342.645782,154.000000 513.000000,154.000000 
z"/>
<path fill="#FFFFFF" opacity="1.000000" stroke="none" 
	d="
M125.000000,1.000000 
	C212.687561,1.000000 300.375122,1.000000 388.531342,1.468657 
	C389.055481,11.624663 389.110992,21.312012 389.098389,31.454132 
	C389.030273,34.840305 389.030273,37.771709 389.030273,40.697113 
	C300.677246,40.697113 213.010269,40.697113 124.833496,40.697113 
	C124.833496,37.265190 124.833496,34.132275 124.901749,30.535229 
	C124.979996,20.380732 124.989998,10.690366 125.000000,1.000000 
z"/>
<path fill="#1BD6BC" opacity="1.000000" stroke="none" 
	d="
M1.000000,175.468567 
	C171.354233,175.000000 341.708466,175.000000 512.531372,175.000000 
	C513.000000,181.021149 513.000000,187.042297 512.531372,193.531723 
	C499.097321,194.000366 486.131927,194.000732 473.166565,194.001083 
	C473.055237,192.515198 472.943909,191.029327 472.812469,189.274597 
	C329.049866,189.274597 185.343552,189.274597 40.971134,189.274597 
	C40.971134,191.581772 40.971134,193.843094 40.444809,196.552246 
	C26.945658,197.000076 13.972829,197.000046 1.000000,197.000000 
	C1.000000,189.979050 1.000000,182.958099 1.000000,175.468567 
z"/>
<path fill="#1EDDB4" opacity="1.000000" stroke="none" 
	d="
M513.000000,153.531342 
	C342.645782,154.000000 172.291550,154.000000 1.468657,154.000000 
	C1.000000,145.645767 1.000000,137.291534 1.468657,128.468506 
	C14.902697,127.999855 27.868080,128.000015 40.901619,128.464447 
	C40.969780,135.523438 40.969780,142.118134 40.969780,148.691391 
	C185.327545,148.691391 328.985229,148.691391 473.166504,148.691391 
	C473.166504,138.925858 473.166504,129.464050 473.624725,120.001762 
	C487.055298,120.000862 500.027649,120.000435 513.000000,120.000000 
	C513.000000,131.020889 513.000000,142.041794 513.000000,153.531342 
z"/>
<path fill="#FFFFFF" opacity="1.000000" stroke="none" 
	d="
M0.999999,90.000000 
	C1.000000,60.408543 1.000000,30.817087 1.000000,1.000000 
	C28.687153,1.000000 56.374916,1.000000 84.531387,1.468657 
	C85.055565,11.624656 85.111031,21.311996 85.098381,31.454132 
	C85.030258,34.829102 85.030258,37.749279 85.030258,41.000546 
	C75.966591,41.000546 67.545151,41.162914 59.132629,40.958359 
	C49.203781,40.716934 40.129234,43.329887 31.372801,48.396080 
	C26.043833,52.604012 20.995193,56.750874 15.636936,61.043762 
	C13.516315,63.776100 11.705311,66.362404 9.591434,69.121162 
	C7.914724,72.196098 6.540886,75.098579 4.991073,78.342781 
	C3.543397,82.456329 2.271698,86.228165 0.999999,90.000000 
z"/>
<path fill="#FFFFFF" opacity="1.000000" stroke="none" 
	d="
M429.000000,1.000000 
	C456.929016,1.000000 484.858032,1.000000 513.000000,1.000000 
	C513.000000,30.353884 513.000000,59.708282 512.778992,89.509521 
	C512.557983,89.956352 512.113831,89.958206 512.067261,89.550865 
	C510.958130,85.429375 509.895538,81.715218 508.789124,77.654816 
	C507.199310,74.522461 505.653320,71.736359 504.054504,68.600983 
	C502.019440,65.800980 500.037231,63.350243 497.917480,60.596748 
	C492.631592,56.306469 487.483307,52.318943 481.995239,48.159611 
	C473.584198,43.264709 464.936920,40.810253 455.520905,40.969112 
	C446.785645,41.116489 438.045959,41.000546 428.833496,41.000546 
	C428.833496,37.251453 428.833496,34.125408 428.901733,30.535229 
	C428.979980,20.380730 428.989990,10.690365 429.000000,1.000000 
z"/>
<path fill="#23E7A8" opacity="1.000000" stroke="none" 
	d="
M508.832947,78.001068 
	C509.895538,81.715218 510.958130,85.429375 511.590851,89.563835 
	C499.503021,89.989632 487.844543,89.944496 476.187408,90.047142 
	C474.082428,90.065674 471.982788,90.691444 469.571228,90.892540 
	C465.615662,87.887230 462.285339,83.233711 458.260193,82.524719 
	C448.809845,80.860115 439.027161,81.081924 428.834167,80.509659 
	C428.834167,86.085777 428.834167,90.542839 428.376648,94.999947 
	C415.001373,94.999954 402.083588,94.999924 389.097351,94.538277 
	C389.028900,89.814781 389.028900,85.552902 389.028900,81.307838 
	C300.674286,81.307838 213.015701,81.307838 124.834061,81.307838 
	C124.834061,86.405289 124.834061,91.202507 124.376541,95.999817 
	C111.001335,95.999840 98.083633,95.999779 85.097351,95.536942 
	C85.028763,90.482658 85.028763,85.891136 85.028763,81.004738 
	C77.376587,81.004738 70.373299,80.535927 63.455967,81.107437 
	C51.056156,82.131920 44.632732,86.856483 41.375626,97.999916 
	C27.611588,97.999870 14.305794,97.999939 1.000000,98.000000 
	C1.000000,95.629440 1.000000,93.258888 0.999999,90.444168 
	C2.271698,86.228165 3.543397,82.456329 5.448259,78.342415 
	C173.665268,78.000580 341.249115,78.000824 508.832947,78.001068 
z"/>
<path fill="#FFFFFF" opacity="1.000000" stroke="none" 
	d="
M513.000000,394.000000 
	C513.000000,433.593628 513.000000,473.187256 513.000000,513.000000 
	C473.646057,513.000000 434.291687,513.000000 394.650543,512.626709 
	C397.428558,511.836121 400.538818,511.625824 403.550140,510.964874 
	C415.524719,508.336609 427.427795,505.450287 438.469666,499.019653 
	C443.256104,496.344025 447.681091,493.697540 452.458374,491.022797 
	C459.244324,485.678040 465.677948,480.361542 472.415588,474.913208 
	C476.779633,469.963409 480.839661,465.145416 485.163513,460.171997 
	C490.228851,452.344452 495.030365,444.672363 499.994843,436.671326 
	C503.049286,427.896210 505.940796,419.450043 509.014404,410.650879 
	C510.464355,404.865234 511.732208,399.432617 513.000000,394.000000 
z"/>
<path fill="#03A4F6" opacity="1.000000" stroke="none" 
	d="
M41.833649,458.004456 
	C44.434265,462.707794 46.620316,468.026947 52.126232,469.908112 
	C56.677765,471.463226 61.571148,472.853210 66.318626,472.871490 
	C119.477386,473.076385 172.637375,473.054413 225.796494,472.902802 
	C230.219955,472.890198 233.350449,473.810486 235.443878,477.882690 
	C236.622696,480.175781 238.349335,482.187256 239.497681,484.655304 
	C167.279297,484.989990 95.392426,484.977203 23.505619,485.042755 
	C19.059052,485.046814 14.613043,485.667023 10.007602,485.675354 
	C6.898951,478.233429 3.949471,471.116699 0.999996,464.000000 
	C1.000000,462.285645 1.000000,460.571289 1.468657,458.428467 
	C15.236093,458.001495 28.534870,458.002960 41.833649,458.004456 
z"/>
<path fill="#01A0FB" opacity="1.000000" stroke="none" 
	d="
M252.114838,498.956543 
	C257.017059,503.419739 261.919250,507.882965 266.910736,512.673096 
	C194.979111,513.000000 122.958214,513.000000 50.309402,512.641418 
	C39.825382,510.685394 31.192242,506.341217 23.844080,500.405090 
	C27.122751,500.204742 29.781578,500.013580 32.440449,500.012939 
	C100.715790,499.996521 168.991150,500.021606 237.266434,499.955078 
	C242.216232,499.950256 247.165390,499.304382 252.114838,498.956543 
z"/>
<path fill="#0BB6E2" opacity="1.000000" stroke="none" 
	d="
M40.833317,342.005463 
	C40.881477,362.695831 40.929642,383.386169 40.447937,404.539001 
	C26.945383,405.001007 13.972692,405.000519 1.000000,405.000000 
	C1.000000,384.312439 1.000000,363.624878 1.468657,342.468658 
	C14.902649,342.001831 27.867983,342.003632 40.833317,342.005463 
z"/>
<path fill="#11C0D5" opacity="1.000000" stroke="none" 
	d="
M40.904961,341.541260 
	C27.867983,342.003632 14.902649,342.001831 1.468657,342.000000 
	C1.000000,322.312439 1.000000,302.624878 1.468657,282.468658 
	C14.902728,282.001373 27.868141,282.002747 40.833553,282.004150 
	C40.881241,301.695099 40.928925,321.386078 40.904961,341.541260 
z"/>
<path fill="#06ABEE" opacity="1.000000" stroke="none" 
	d="
M1.000000,405.468658 
	C13.972692,405.000519 26.945383,405.001007 40.375568,405.002930 
	C40.888996,416.638550 40.850464,428.274261 41.041046,439.906219 
	C41.135223,445.654114 41.651939,451.395020 41.905560,457.571777 
	C28.534870,458.002960 15.236093,458.001495 1.468657,458.000000 
	C1.000000,440.645782 1.000000,423.291534 1.000000,405.468658 
z"/>
<path fill="#15CAC9" opacity="1.000000" stroke="none" 
	d="
M40.904305,281.539886 
	C27.868141,282.002747 14.902728,282.001373 1.468657,282.000000 
	C1.000000,265.312439 1.000000,248.624878 1.468657,231.468658 
	C14.902779,231.000885 27.868242,231.001770 40.833706,231.002655 
	C40.880821,247.693649 40.927937,264.384644 40.904305,281.539886 
z"/>
<path fill="#19D1C1" opacity="1.000000" stroke="none" 
	d="
M473.098511,194.465317 
	C486.131927,194.000732 499.097321,194.000366 512.531372,194.000000 
	C513.000000,208.354233 513.000000,222.708450 512.531372,237.530945 
	C507.251831,237.999069 502.435974,237.862396 497.631561,238.038116 
	C493.045074,238.205887 488.470459,238.699081 483.890625,239.049225 
	C480.665741,236.944366 477.277863,235.039734 474.307770,232.621872 
	C473.319824,231.817596 473.064270,229.699478 473.051910,228.177292 
	C472.961945,217.095383 473.019470,206.012283 473.098511,194.465317 
z"/>
<path fill="#19D1C1" opacity="1.000000" stroke="none" 
	d="
M40.903542,230.538376 
	C27.868242,231.001770 14.902779,231.000885 1.468657,231.000000 
	C1.000000,219.979111 1.000000,208.958206 1.000000,197.468658 
	C13.972829,197.000046 26.945658,197.000076 40.375824,197.000336 
	C40.879902,208.025070 40.926640,219.049591 40.903542,230.538376 
z"/>
<path fill="#01A0FB" opacity="1.000000" stroke="none" 
	d="
M438.108215,499.048798 
	C427.427795,505.450287 415.524719,508.336609 403.550140,510.964874 
	C400.538818,511.625824 397.428558,511.836121 394.181885,512.626709 
	C383.645782,513.000000 373.291534,513.000000 362.468658,513.000000 
	C356.411133,511.693420 350.717194,510.721130 345.257080,509.004974 
	C336.172363,506.149628 327.237610,502.817230 318.457672,499.198853 
	C320.297028,498.474640 321.918182,498.031982 323.539825,498.030212 
	C359.798309,497.990845 396.056885,497.983948 432.315308,498.044708 
	C434.246826,498.047943 436.177277,498.699188 438.108215,499.048798 
z"/>
<path fill="#21E3AD" opacity="1.000000" stroke="none" 
	d="
M469.880676,91.036865 
	C471.982788,90.691444 474.082428,90.065674 476.187408,90.047142 
	C487.844543,89.944496 499.503021,89.989632 511.637421,89.971176 
	C512.113831,89.958206 512.557983,89.956352 512.778992,89.978180 
	C513.000000,99.687561 513.000000,109.375122 513.000000,119.531342 
	C500.027649,120.000435 487.055298,120.000862 473.555847,119.537560 
	C472.798035,109.636261 474.012085,100.036461 469.880676,91.036865 
z"/>
<path fill="#21E3AD" opacity="1.000000" stroke="none" 
	d="
M1.000000,98.468658 
	C14.305794,97.999939 27.611588,97.999870 41.441666,98.424347 
	C41.644073,101.926926 41.127182,104.999481 41.040504,108.084129 
	C40.854046,114.719505 40.889084,121.361115 40.833462,128.000168 
	C27.868080,128.000015 14.902697,127.999855 1.468657,127.999847 
	C1.000000,118.312439 1.000000,108.624878 1.000000,98.468658 
z"/>
<path fill="#29F29B" opacity="1.000000" stroke="none" 
	d="
M85.166504,30.999338 
	C85.111031,21.311996 85.055565,11.624656 85.000046,1.468657 
	C98.020897,1.000000 111.041786,1.000000 124.531342,1.000000 
	C124.989998,10.690366 124.979996,20.380732 124.444443,30.535439 
	C111.001427,30.999632 98.083969,30.999485 85.166504,30.999338 
z"/>
<path fill="#29F29B" opacity="1.000000" stroke="none" 
	d="
M428.531342,1.000000 
	C428.989990,10.690365 428.979980,20.380730 428.444427,30.535437 
	C415.001434,30.999640 402.083954,30.999500 389.166504,30.999361 
	C389.110992,21.312012 389.055481,11.624663 389.000000,1.468657 
	C402.020905,1.000000 415.041779,1.000000 428.531342,1.000000 
z"/>
<path fill="#0AB2E6" opacity="1.000000" stroke="none" 
	d="
M513.000000,393.541931 
	C511.732208,399.432617 510.464355,404.865234 508.556946,410.649872 
	C494.238586,410.988892 480.559784,410.975861 466.930725,410.566162 
	C468.709259,401.113708 470.438019,392.057892 472.625000,383.001404 
	C486.388794,383.000458 499.694397,383.000244 513.000000,383.000000 
	C513.000000,386.361298 513.000000,389.722565 513.000000,393.541931 
z"/>
<path fill="#0CB7E0" opacity="1.000000" stroke="none" 
	d="
M513.000000,382.531464 
	C499.694397,383.000244 486.388794,383.000458 472.554138,382.537781 
	C471.739105,374.716248 471.453094,367.357574 471.625244,359.999359 
	C485.333282,360.000427 498.583160,360.001038 511.833008,360.001648 
	C512.018188,360.604645 512.203308,361.207672 512.694214,361.905334 
	C513.000000,368.687653 513.000000,375.375275 513.000000,382.531464 
z"/>
<path fill="#FFFFFF" opacity="1.000000" stroke="none" 
	d="
M23.224262,500.503082 
	C31.192242,506.341217 39.825382,510.685394 49.840744,512.641418 
	C33.739925,513.000000 17.479853,513.000000 1.000000,513.000000 
	C1.000000,496.979767 1.000000,480.958557 0.999996,464.468658 
	C3.949471,471.116699 6.898951,478.233429 10.037472,486.011230 
	C14.559099,491.282562 18.891685,495.892822 23.224262,500.503082 
z"/>
<path fill="#15CAC9" opacity="1.000000" stroke="none" 
	d="
M484.036499,239.358139 
	C488.470459,238.699081 493.045074,238.205887 497.631561,238.038116 
	C502.435974,237.862396 507.251831,237.999069 512.531372,237.999603 
	C513.000000,243.022095 513.000000,248.044189 512.537964,253.533142 
	C508.345978,254.014069 504.616028,254.028137 500.886078,254.042206 
	C495.318176,249.250473 489.750275,244.458755 484.036499,239.358139 
z"/>
<path fill="#14C8CC" opacity="1.000000" stroke="none" 
	d="
M501.028931,254.348587 
	C504.616028,254.028137 508.345978,254.014069 512.537964,254.000000 
	C513.000000,258.024536 513.000000,262.049103 513.000000,266.536804 
	C509.057251,262.885010 505.114502,258.769989 501.028931,254.348587 
z"/>
<path fill="#13C6CF" opacity="1.000000" stroke="none" 
	d="
M463.112976,272.957520 
	C470.409882,280.388641 477.706787,287.819763 484.664246,295.769989 
	C482.371307,296.526062 480.418579,296.960907 478.464233,296.968506 
	C463.666992,297.026123 448.869232,296.963837 434.072266,297.049164 
	C432.366638,297.058990 430.664917,297.745392 428.600311,298.061279 
	C427.500763,297.671021 426.727966,297.397278 426.028656,296.995605 
	C396.415009,279.987549 366.202423,279.182037 335.557037,293.905762 
	C330.186615,296.485992 325.252563,299.974579 319.724640,302.877625 
	C317.378601,302.473999 315.425781,302.038910 313.471100,302.030457 
	C299.670410,301.970795 285.869141,302.037048 272.068756,301.949951 
	C270.359497,301.939178 268.654449,301.261719 266.947449,300.893158 
	C273.788788,290.208221 282.375977,281.122070 293.056946,273.110046 
	C350.264069,272.974823 406.688507,272.966156 463.112976,272.957520 
z"/>
<path fill="#02A1F9" opacity="1.000000" stroke="none" 
	d="
M23.844088,500.405090 
	C18.891685,495.892822 14.559099,491.282562 10.196644,486.336426 
	C14.613043,485.667023 19.059052,485.046814 23.505619,485.042755 
	C95.392426,484.977203 167.279297,484.989990 239.642761,484.973450 
	C244.024124,489.420166 247.928864,493.878387 251.974213,498.646576 
	C247.165390,499.304382 242.216232,499.950256 237.266434,499.955078 
	C168.991150,500.021606 100.715790,499.996521 32.440449,500.012939 
	C29.781578,500.013580 27.122751,500.204742 23.844088,500.405090 
z"/>
<path fill="#03A4F6" opacity="1.000000" stroke="none" 
	d="
M472.111542,475.045013 
	C465.677948,480.361542 459.244324,485.678040 452.067505,490.853241 
	C449.535919,490.474640 447.747681,490.031586 445.959045,490.030090 
	C400.701385,489.991882 355.443695,489.985962 310.186096,490.044495 
	C308.087585,490.047211 305.989960,490.699463 303.891907,491.049194 
	C297.318207,485.920990 290.744507,480.792755 284.422302,475.187714 
	C286.463074,474.473938 288.252258,474.030945 290.041718,474.029846 
	C348.632141,473.993683 407.222565,473.989166 465.812988,474.044067 
	C467.912811,474.046021 470.012024,474.696686 472.111542,475.045013 
z"/>
<path fill="#03A5F5" opacity="1.000000" stroke="none" 
	d="
M472.415588,474.913208 
	C470.012024,474.696686 467.912811,474.046021 465.812988,474.044067 
	C407.222565,473.989166 348.632141,473.993683 290.041718,474.029846 
	C288.252258,474.030945 286.463074,474.473938 284.282166,474.878906 
	C278.593201,468.945007 273.295868,462.843140 268.417114,456.377930 
	C284.827026,456.009735 300.818665,456.042755 316.809601,455.954163 
	C318.913788,455.942535 321.014587,455.308807 323.432709,455.103882 
	C330.620300,458.854462 337.275604,462.980682 344.407104,465.971283 
	C361.509430,473.143036 379.322876,473.666504 397.367920,470.274689 
	C407.928925,468.289612 417.709137,464.260406 427.243347,459.195618 
	C429.491669,459.676453 431.460114,459.963806 433.430786,459.980286 
	C450.586853,460.123535 467.743286,460.218231 484.899658,460.327393 
	C480.839661,465.145416 476.779633,469.963409 472.415588,474.913208 
z"/>
<path fill="#14C8CC" opacity="1.000000" stroke="none" 
	d="
M462.964417,272.644043 
	C406.688507,272.966156 350.264069,272.974823 293.363281,272.970520 
	C301.152496,267.600769 309.418030,262.243988 318.482239,256.920685 
	C321.723083,257.302795 324.164703,257.950195 326.607574,257.954987 
	C360.519043,258.021545 394.430725,258.032471 428.342072,257.945465 
	C431.442657,257.937531 434.541260,257.164795 437.640778,256.747192 
	C444.613159,260.854584 451.604980,264.929565 458.542755,269.094604 
	C460.065765,270.008942 461.396576,271.243500 462.964417,272.644043 
z"/>
<path fill="#08AFE9" opacity="1.000000" stroke="none" 
	d="
M77.007401,428.757477 
	C76.999039,416.121216 76.999039,403.963196 76.999039,391.404755 
	C90.188354,391.404755 103.240662,391.404755 116.649857,391.404755 
	C116.649857,404.294556 116.649857,417.346283 116.649857,430.937592 
	C103.908638,430.937592 91.146042,430.955322 78.384201,430.865845 
	C77.924271,430.862610 77.471741,429.802979 77.007401,428.757477 
z"/>
<path fill="#15CAC9" opacity="1.000000" stroke="none" 
	d="
M237.087006,232.297028 
	C238.717728,231.551102 240.285004,231.048538 241.855179,231.039261 
	C253.328995,230.971512 264.803375,231.002777 276.639221,231.002777 
	C276.639221,244.285492 276.639221,257.330688 276.639221,270.690704 
	C263.619202,270.690704 250.574326,270.690704 237.024872,270.690704 
	C237.024872,257.972778 237.024872,245.370773 237.087006,232.297028 
z"/>
<path fill="#08AFE9" opacity="1.000000" stroke="none" 
	d="
M196.998383,403.015381 
	C196.998413,412.476196 196.998413,421.440399 196.998413,430.702515 
	C183.615356,430.702515 170.565994,430.702515 157.255844,430.702515 
	C157.255844,417.651520 157.255844,404.719971 157.255844,391.395538 
	C170.205124,391.395538 183.254913,391.395538 196.998337,391.395538 
	C196.998337,395.001556 196.998337,398.760162 196.998383,403.015381 
z"/>
<path fill="#15CAC9" opacity="1.000000" stroke="none" 
	d="
M117.000801,255.995773 
	C117.000801,261.127899 117.000801,265.760803 117.000801,270.694702 
	C103.614044,270.694702 90.572189,270.694702 77.263138,270.694702 
	C77.263138,257.649200 77.263138,244.724823 77.263138,231.400909 
	C90.204086,231.400909 103.246902,231.400909 117.000801,231.400909 
	C117.000801,239.329269 117.000801,247.412918 117.000801,255.995773 
z"/>
<path fill="#0FBDD9" opacity="1.000000" stroke="none" 
	d="
M90.010132,351.003265 
	C85.543999,351.003265 81.576149,351.003265 77.304924,351.003265 
	C77.304924,337.621307 77.304924,324.576477 77.304924,311.266479 
	C90.354500,311.266479 103.281685,311.266479 116.606262,311.266479 
	C116.606262,324.208557 116.606262,337.255371 116.606262,351.003265 
	C108.011795,351.003265 99.260094,351.003265 90.010132,351.003265 
z"/>
<path fill="#0FBDD9" opacity="1.000000" stroke="none" 
	d="
M170.009781,311.002930 
	C179.136902,311.002930 187.765305,311.002930 196.696320,311.002930 
	C196.696320,324.394562 196.696320,337.439301 196.696320,350.744446 
	C183.641861,350.744446 170.713547,350.744446 157.390762,350.744446 
	C157.390762,337.798615 157.390762,324.751953 157.390762,311.002930 
	C161.333099,311.002930 165.422089,311.002930 170.009781,311.002930 
z"/>
<path fill="#15CAC9" opacity="1.000000" stroke="none" 
	d="
M437.415039,256.444763 
	C434.541260,257.164795 431.442657,257.937531 428.342072,257.945465 
	C394.430725,258.032471 360.519043,258.021545 326.607574,257.954987 
	C324.164703,257.950195 321.723083,257.302795 318.820251,256.851288 
	C329.506866,252.836136 340.391968,247.479996 351.871124,245.395538 
	C364.755066,243.055984 378.247437,242.502823 391.344818,243.303604 
	C407.311768,244.279816 422.742035,248.874527 437.415039,256.444763 
z"/>
<path fill="#0FBDD9" opacity="1.000000" stroke="none" 
	d="
M246.877014,345.964417 
	C250.010239,336.742798 253.143448,327.521179 256.976868,318.294189 
	C259.616821,318.525879 261.555542,318.958282 263.496490,318.968597 
	C277.036835,319.040619 290.577667,319.025238 303.970367,319.354248 
	C298.826263,328.780579 293.830078,337.890533 288.430115,346.937256 
	C285.916992,346.582672 283.809540,346.056122 281.698029,346.039062 
	C270.091553,345.945312 258.484131,345.976257 246.877014,345.964417 
z"/>
<path fill="#0BB6E2" opacity="1.000000" stroke="none" 
	d="
M244.165375,397.001251 
	C243.786316,387.644165 243.407257,378.287048 243.554550,368.465210 
	C257.332001,368.000732 270.583099,368.000977 283.903015,368.465363 
	C284.355560,378.273804 284.739349,387.618073 284.646881,396.973724 
	C270.835541,396.990448 257.500458,396.995850 244.165375,397.001251 
z"/>
<path fill="#08AFE9" opacity="1.000000" stroke="none" 
	d="
M244.097473,397.416870 
	C257.500458,396.995850 270.835541,396.990448 284.972900,397.182098 
	C288.665253,405.635376 291.555298,413.891602 294.196716,422.551270 
	C292.051514,423.303101 290.157349,423.937714 288.258026,423.953552 
	C275.800476,424.057404 263.341797,424.027557 250.883484,424.041351 
	C248.598846,415.305054 246.314209,406.568756 244.097473,397.416870 
z"/>
<path fill="#02A1F9" opacity="1.000000" stroke="none" 
	d="
M304.058014,491.360474 
	C305.989960,490.699463 308.087585,490.047211 310.186096,490.044495 
	C355.443695,489.985962 400.701385,489.991882 445.959045,490.030090 
	C447.747681,490.031586 449.535919,490.474640 451.715210,490.881500 
	C447.681091,493.697540 443.256104,496.344025 438.469666,499.019653 
	C436.177277,498.699188 434.246826,498.047943 432.315308,498.044708 
	C396.056885,497.983948 359.798309,497.990845 323.539825,498.030212 
	C321.918182,498.031982 320.297028,498.474640 318.284729,498.881287 
	C313.337250,496.591003 308.780670,494.131378 304.058014,491.360474 
z"/>
<path fill="#0FBDD9" opacity="1.000000" stroke="none" 
	d="
M498.832825,317.002869 
	C501.872925,324.415253 504.913055,331.827637 507.489990,339.682922 
	C505.073059,340.417175 503.120911,340.948120 501.165405,340.960846 
	C489.166260,341.038971 477.166351,340.999817 465.006104,340.676331 
	C460.190491,332.914246 455.535522,325.475555 451.303345,317.979248 
	C453.834747,317.614441 455.941833,317.053558 458.052124,317.041199 
	C471.645264,316.961548 485.239166,317.001892 498.832825,317.002869 
z"/>
<path fill="#11C0D5" opacity="1.000000" stroke="none" 
	d="
M498.793213,316.654907 
	C485.239166,317.001892 471.645264,316.961548 458.052124,317.041199 
	C455.941833,317.053558 453.834747,317.614441 450.995483,317.839935 
	C448.374573,315.537140 446.710938,313.060120 444.548706,311.146423 
	C439.479889,306.660248 434.172302,302.443756 428.961365,298.118103 
	C430.664917,297.745392 432.366638,297.058990 434.072266,297.049164 
	C448.869232,296.963837 463.666992,297.026123 478.464233,296.968506 
	C480.418579,296.960907 482.371307,296.526062 484.716125,296.120514 
	C489.656219,302.736938 494.204926,309.521942 498.793213,316.654907 
z"/>
<path fill="#0DB9DE" opacity="1.000000" stroke="none" 
	d="
M283.834198,368.001221 
	C270.583099,368.000977 257.332001,368.000732 243.623367,368.001251 
	C244.183929,360.799194 245.202026,353.596375 246.548569,346.178986 
	C258.484131,345.976257 270.091553,345.945312 281.698029,346.039062 
	C283.809540,346.056122 285.916992,346.582672 288.368164,347.309875 
	C287.084717,354.497589 285.459442,361.249390 283.834198,368.001221 
z"/>
<path fill="#06ABEE" opacity="1.000000" stroke="none" 
	d="
M250.943756,424.420471 
	C263.341797,424.027557 275.800476,424.057404 288.258026,423.953552 
	C290.157349,423.937714 292.051514,423.303101 294.426483,422.844818 
	C299.642822,429.477264 304.380737,436.219574 308.642700,442.973633 
	C295.685028,442.990265 283.202545,442.919098 270.722107,443.047638 
	C267.107147,443.084839 263.498108,443.694824 259.886353,444.042267 
	C256.925598,437.628021 253.964798,431.213806 250.943756,424.420471 
z"/>
<path fill="#11C0D5" opacity="1.000000" stroke="none" 
	d="
M304.118317,319.037872 
	C290.577667,319.025238 277.036835,319.040619 263.496490,318.968597 
	C261.555542,318.958282 259.616821,318.525879 257.286255,318.119263 
	C260.035156,312.365784 263.174835,306.781860 266.630981,301.045563 
	C268.654449,301.261719 270.359497,301.939178 272.068756,301.949951 
	C285.869141,302.037048 299.670410,301.970795 313.471100,302.030457 
	C315.425781,302.038910 317.378601,302.473999 319.578369,303.187012 
	C314.589081,308.787567 309.353699,313.912720 304.118317,319.037872 
z"/>
<path fill="#0DB9DE" opacity="1.000000" stroke="none" 
	d="
M465.166718,340.999695 
	C477.166351,340.999817 489.166260,341.038971 501.165405,340.960846 
	C503.120911,340.948120 505.073059,340.417175 507.429962,340.064331 
	C509.212860,346.386902 510.592529,352.770966 511.902588,359.578308 
	C498.583160,360.001038 485.333282,360.000427 471.444946,359.649963 
	C468.926544,353.199982 467.046631,347.099854 465.166718,340.999695 
z"/>
<path fill="#14C8CC" opacity="1.000000" stroke="none" 
	d="
M196.831955,251.002029 
	C196.831955,257.451935 196.831955,263.901825 196.831955,270.675293 
	C183.670380,270.675293 170.647934,270.675293 157.030151,270.675293 
	C157.030151,264.427185 157.030151,258.178406 157.556396,251.465302 
	C170.999069,251.001328 183.915512,251.001678 196.831955,251.002029 
z"/>
<path fill="#15CAC9" opacity="1.000000" stroke="none" 
	d="
M196.901337,250.537872 
	C183.915512,251.001678 170.999069,251.001328 157.625336,251.001511 
	C157.168045,244.552505 157.168045,238.102966 157.168045,231.329315 
	C170.330246,231.329315 183.350723,231.329315 196.970703,231.329315 
	C196.970703,237.577530 196.970703,243.825607 196.901337,250.537872 
z"/>
<path fill="#05A9F1" opacity="1.000000" stroke="none" 
	d="
M260.036011,444.364014 
	C263.498108,443.694824 267.107147,443.084839 270.722107,443.047638 
	C283.202545,442.919098 295.685028,442.990265 308.945862,443.106689 
	C314.188965,447.139709 318.652954,451.051453 323.116943,454.963196 
	C321.014587,455.308807 318.913788,455.942535 316.809601,455.954163 
	C300.818665,456.042755 284.827026,456.009735 268.359131,456.025482 
	C265.316986,452.252808 262.751312,448.469269 260.036011,444.364014 
z"/>
<path fill="#26EDA1" opacity="1.000000" stroke="none" 
	d="
M389.098389,31.454132 
	C402.083954,30.999500 415.001434,30.999640 428.376190,30.999569 
	C428.833496,34.125408 428.833496,37.251453 428.833496,41.000546 
	C438.045959,41.000546 446.785645,41.116489 455.520905,40.969112 
	C464.936920,40.810253 473.584198,43.264709 481.476135,48.375820 
	C479.046356,49.175926 476.796051,49.947842 474.545441,49.948727 
	C329.470428,50.005680 184.395386,50.008625 39.320370,49.930771 
	C36.764339,49.929401 34.208862,48.890038 31.653130,48.335014 
	C40.129234,43.329887 49.203781,40.716934 59.132629,40.958359 
	C67.545151,41.162914 75.966591,41.000546 85.030258,41.000546 
	C85.030258,37.749279 85.030258,34.829102 85.098381,31.454132 
	C98.083969,30.999485 111.001427,30.999632 124.376190,30.999569 
	C124.833496,34.132275 124.833496,37.265190 124.833496,40.697113 
	C213.010269,40.697113 300.677246,40.697113 389.030273,40.697113 
	C389.030273,37.771709 389.030273,34.840305 389.098389,31.454132 
z"/>
<path fill="#FFFFFF" opacity="1.000000" stroke="none" 
	d="
M40.901619,128.464447 
	C40.889084,121.361115 40.854046,114.719505 41.040504,108.084129 
	C41.127182,104.999481 41.644073,101.926926 41.899910,98.424454 
	C44.632732,86.856483 51.056156,82.131920 63.455967,81.107437 
	C70.373299,80.535927 77.376587,81.004738 85.028763,81.004738 
	C85.028763,85.891136 85.028763,90.482658 85.029297,96.001328 
	C85.029831,104.840416 85.029831,112.752357 85.029831,120.669556 
	C98.648277,120.669556 111.671005,120.669556 124.834061,120.669556 
	C124.834061,112.226357 124.834061,104.113037 124.834061,95.999725 
	C124.834061,91.202507 124.834061,86.405289 124.834061,81.307838 
	C213.015701,81.307838 300.674286,81.307838 389.028900,81.307838 
	C389.028900,85.552902 389.028900,89.814781 389.029327,95.002640 
	C389.029755,104.173332 389.029755,112.418037 389.029755,120.669098 
	C402.647705,120.669098 415.671204,120.669098 428.834167,120.669098 
	C428.834167,111.892471 428.834167,103.446190 428.834167,94.999901 
	C428.834167,90.542839 428.834167,86.085777 428.834167,80.509659 
	C439.027161,81.081924 448.809845,80.860115 458.260193,82.524719 
	C462.285339,83.233711 465.615662,87.887230 469.571228,90.892548 
	C474.012085,100.036461 472.798035,109.636261 473.097626,119.538033 
	C473.166504,129.464050 473.166504,138.925858 473.166504,148.691391 
	C328.985229,148.691391 185.327545,148.691391 40.969780,148.691391 
	C40.969780,142.118134 40.969780,135.523438 40.901619,128.464447 
z"/>
<path fill="#25EBA4" opacity="1.000000" stroke="none" 
	d="
M31.372801,48.396080 
	C34.208862,48.890038 36.764339,49.929401 39.320370,49.930771 
	C184.395386,50.008625 329.470428,50.005680 474.545441,49.948727 
	C476.796051,49.947842 479.046356,49.175926 481.815887,48.547626 
	C487.483307,52.318943 492.631592,56.306469 497.631104,60.910591 
	C496.010834,61.684792 494.539398,61.980236 493.067902,61.980431 
	C335.739471,62.001286 178.411057,62.003498 21.082657,61.954338 
	C19.370512,61.953804 17.658583,61.265160 15.946554,60.897736 
	C20.995193,56.750874 26.043833,52.604012 31.372801,48.396080 
z"/>
<path fill="#24E9A6" opacity="1.000000" stroke="none" 
	d="
M508.789124,77.654816 
	C341.249115,78.000824 173.665268,78.000580 5.624236,78.000702 
	C6.540886,75.098579 7.914724,72.196098 9.982360,69.290894 
	C12.466708,69.525444 14.257219,69.970146 16.047817,69.970505 
	C176.633850,70.002312 337.219879,70.003990 497.805908,69.956436 
	C499.906494,69.955818 502.006866,69.300171 504.107361,68.950256 
	C505.653320,71.736359 507.199310,74.522461 508.789124,77.654816 
z"/>
<path fill="#25EAA5" opacity="1.000000" stroke="none" 
	d="
M504.054504,68.600983 
	C502.006866,69.300171 499.906494,69.955818 497.805908,69.956436 
	C337.219879,70.003990 176.633850,70.002312 16.047817,69.970505 
	C14.257219,69.970146 12.466708,69.525444 10.285233,69.118439 
	C11.705311,66.362404 13.516315,63.776100 15.636936,61.043762 
	C17.658583,61.265160 19.370512,61.953804 21.082657,61.954338 
	C178.411057,62.003498 335.739471,62.001286 493.067902,61.980431 
	C494.539398,61.980236 496.010834,61.684792 497.768677,61.213348 
	C500.037231,63.350243 502.019440,65.800980 504.054504,68.600983 
z"/>
<path fill="#21E3AD" opacity="1.000000" stroke="none" 
	d="
M428.376648,94.999947 
	C428.834167,103.446190 428.834167,111.892471 428.834167,120.669098 
	C415.671204,120.669098 402.647705,120.669098 389.029755,120.669098 
	C389.029755,112.418037 389.029755,104.173332 389.097778,95.464256 
	C402.083588,94.999924 415.001373,94.999954 428.376648,94.999947 
z"/>
<path fill="#21E3AD" opacity="1.000000" stroke="none" 
	d="
M124.376541,95.999817 
	C124.834061,104.113037 124.834061,112.226357 124.834061,120.669556 
	C111.671005,120.669556 98.648277,120.669556 85.029831,120.669556 
	C85.029831,112.752357 85.029831,104.840416 85.097885,96.464096 
	C98.083633,95.999779 111.001335,95.999840 124.376541,95.999817 
z"/>
<path fill="#05A9F1" opacity="1.000000" stroke="none" 
	d="
M485.163483,460.171936 
	C467.743286,460.218231 450.586853,460.123535 433.430786,459.980286 
	C431.460114,459.963806 429.491669,459.676453 427.403229,458.892578 
	C427.864960,457.990601 428.549286,457.826538 429.010956,457.413635 
	C436.984528,450.281433 444.930634,443.118561 453.275696,436.126587 
	C455.618195,436.527191 457.566864,436.959686 459.517487,436.968414 
	C472.955414,437.028534 486.393707,437.000183 499.831909,437.000275 
	C495.030365,444.672363 490.228851,452.344452 485.163483,460.171936 
z"/>
<path fill="#06ABEE" opacity="1.000000" stroke="none" 
	d="
M499.994843,436.671326 
	C486.393707,437.000183 472.955414,437.028534 459.517487,436.968414 
	C457.566864,436.959686 455.618195,436.527191 453.332214,435.772644 
	C454.062073,433.649109 455.238342,432.105133 456.175201,430.427429 
	C459.785339,423.962433 463.318817,417.454620 466.880920,410.962830 
	C480.559784,410.975861 494.238586,410.988892 508.374878,411.002930 
	C505.940796,419.450043 503.049286,427.896210 499.994843,436.671326 
z"/>
<path fill="#FFFFFF" opacity="1.000000" stroke="none" 
	d="
M466.930695,410.566162 
	C463.318817,417.454620 459.785339,423.962433 456.175201,430.427429 
	C455.238342,432.105133 454.062073,433.649109 452.939270,435.608459 
	C444.930634,443.118561 436.984528,450.281433 429.010956,457.413635 
	C428.549286,457.826538 427.864960,457.990601 427.124390,458.573517 
	C417.709137,464.260406 407.928925,468.289612 397.367920,470.274689 
	C379.322876,473.666504 361.509430,473.143036 344.407104,465.971283 
	C337.275604,462.980682 330.620300,458.854462 323.432709,455.103882 
	C318.652954,451.051453 314.188965,447.139709 309.421814,443.094940 
	C304.380737,436.219574 299.642822,429.477264 294.675140,422.441406 
	C291.555298,413.891602 288.665253,405.635376 285.449158,397.170746 
	C284.739349,387.618073 284.355560,378.273804 283.903015,368.465363 
	C285.459442,361.249390 287.084717,354.497589 288.771973,347.373108 
	C293.830078,337.890533 298.826263,328.780579 303.970367,319.354248 
	C309.353699,313.912720 314.589081,308.787567 319.970703,303.353027 
	C325.252563,299.974579 330.186615,296.485992 335.557037,293.905762 
	C366.202423,279.182037 396.415009,279.987549 426.028656,296.995605 
	C426.727966,297.397278 427.500763,297.671021 428.600311,298.061279 
	C434.172302,302.443756 439.479889,306.660248 444.548706,311.146423 
	C446.710938,313.060120 448.374573,315.537140 450.572632,317.897522 
	C455.535522,325.475555 460.190491,332.914246 465.006104,340.676331 
	C467.046631,347.099854 468.926544,353.199982 470.986755,359.649536 
	C471.453094,367.357574 471.739105,374.716248 472.095947,382.538513 
	C470.438019,392.057892 468.709259,401.113708 466.930695,410.566162 
M357.029999,349.931244 
	C357.075836,359.288422 357.121674,368.645630 357.030334,378.930542 
	C357.030334,385.186188 357.030334,391.441803 357.030334,397.685242 
	C381.981415,397.685242 406.333069,397.685242 430.832489,397.685242 
	C430.832489,390.915863 430.832489,384.459351 430.974518,377.075134 
	C430.974518,370.828064 430.974518,364.580994 430.974518,357.867920 
	C419.359283,357.867920 408.319214,357.867920 396.833282,357.867920 
	C396.833282,354.596375 396.833282,351.799835 396.974579,348.074860 
	C396.974579,335.831757 396.974579,323.588654 396.974579,311.334625 
	C383.357269,311.334625 370.323944,311.334625 357.166718,311.334625 
	C357.166718,324.111389 357.166718,336.557343 357.029999,349.931244 
z"/>
<path fill="#0CB7E0" opacity="1.000000" stroke="none" 
	d="
M396.833282,349.003265 
	C396.833282,351.799835 396.833282,354.596375 396.833282,357.867920 
	C408.319214,357.867920 419.359283,357.867920 430.974518,357.867920 
	C430.974518,364.580994 430.974518,370.828064 430.446045,377.538116 
	C405.667572,378.001678 381.417542,378.002228 357.167511,378.002808 
	C357.121674,368.645630 357.075836,359.288422 357.555817,349.466187 
	C370.998840,349.001831 383.916077,349.002533 396.833282,349.003265 
z"/>
<path fill="#0FBDD9" opacity="1.000000" stroke="none" 
	d="
M396.903931,348.539062 
	C383.916077,349.002533 370.998840,349.001831 357.624176,349.002197 
	C357.166718,336.557343 357.166718,324.111389 357.166718,311.334625 
	C370.323944,311.334625 383.357269,311.334625 396.974579,311.334625 
	C396.974579,323.588654 396.974579,335.831757 396.903931,348.539062 
z"/>
<path fill="#0AB2E6" opacity="1.000000" stroke="none" 
	d="
M357.098938,378.466675 
	C381.417542,378.002228 405.667572,378.001678 430.375061,378.001953 
	C430.832489,384.459351 430.832489,390.915863 430.832489,397.685242 
	C406.333069,397.685242 381.981415,397.685242 357.030334,397.685242 
	C357.030334,391.441803 357.030334,385.186188 357.098938,378.466675 
z"/>
</svg>